<svg xmlns="http://www.w3.org/2000/svg" width="18.832" height="18.378" viewBox="0 0 18.832 18.378">
  <path id="Button" d="M4.947,9.529a3.9,3.9,0,0,1,.99-2.647A4.89,4.89,0,0,1,7.915,5.824H9M4.947,9.529H2.474L0,5.824M4.947,9.529l.495,2.118m0,0H2.474L0,13.765m5.442-2.118.989,2.118m0,0L3.463,15.353V18m2.968-4.235A5.858,5.858,0,0,0,9,14.824m4.053-5.294a3.9,3.9,0,0,0-.989-2.647,4.89,4.89,0,0,0-1.979-1.059H9m4.053,3.706h2.474L18,5.824M13.053,9.529l-.495,2.118m0,0h2.968L18,13.765m-5.442-2.118-.989,2.118m0,0,2.968,1.588V18m-2.968-4.235A5.859,5.859,0,0,1,9,14.824m0-9V0M9,5.824v9M9,0,5.936,2.647M9,0l3.064,2.647" transform="translate(0.416 0.378)" fill="none" stroke="#fff" stroke-width="1"/>
</svg>
